# xmcd
#
# Track frame offsets: 
#        150
#        11475
#        22623
#        35181
#        43579
#        59215
#        72224
#        87978
#        112661
#        128085
#        139084
#        149247
#
# Disc length: 2234 seconds
#
# Revision: 0
# Processed by: cddbd v1.5.1PL2 Copyright (c) Steve Scherf et al.
# Submitted via: ExactAudioCopy v0.95a5
#
DISCID=a908b80c
DTITLE=My Buddy Moose - My Buddy Moose
DYEAR=2006
DGENRE=Country
TTITLE0=Heartbreak Hotel
TTITLE1=Bad Day
TTITLE2=Sundays
TTITLE3=Music
TTITLE4=Streets
TTITLE5=I Know I've Gotta Stop
TTITLE6=Now She's Lonely
TTITLE7=Waiting For Explosion
TTITLE8=Ocean
TTITLE9=Better Rock'n'Roll
TTITLE10=Awakening
TTITLE11=Crossing The Big River
EXTD=
EXTT0=
EXTT1=
EXTT2=
EXTT3=
EXTT4=
EXTT5=
EXTT6=
EXTT7=
EXTT8=
EXTT9=
EXTT10=
EXTT11=
PLAYORDER=
